<?xml version="1.0" encoding="utf-8"?>
<svg fill="white" version="1.1" id="Layer_1" xmlns="http://www.w3.org/2000/svg" xmlns:xlink="http://www.w3.org/1999/xlink" x="0px" y="0px"
	 viewBox="0 0 1810 690" style="enable-background:new 0 0 1810 690;" xml:space="preserve">

<path   d="M1446.5,402.4c-22-44.9-72.7-58.8-111.6-38c-29.6,15.9-45.4,41.4-46.1,75.2c-0.5,23.2-0.1,46.3-0.1,69.5
	c0,21,0.1,42-0.1,63c0,4.4,1.4,6,5.7,5.6c2.8-0.3,5.6-0.3,8.4,0c4.5,0.5,6-1.1,6-5.8c-0.2-23-0.1-46-0.1-69v-6.3
	c1.5,0.4,1.9,0.4,2.1,0.6c1.1,1,2.2,2,3.3,3c23,22,50.3,29.4,80.7,20.8C1443.9,507.3,1469.8,450,1446.5,402.4z M1388.8,501.8
	c-48.6,13.8-81.8-28.6-79.1-61.8c-1.9-29.1,21.6-56.8,46.1-62.9c33.9-8.4,67.7,11.6,76.7,46C1441.7,458.8,1421.5,492.5,1388.8,501.8
	z"/>
<path   d="M638.3,381.7c5.7-5.3,9.8-9.9,14.6-13.5c24.3-18.4,59.8-15.6,83.4,6.7c14.8,14,22.7,31,22.6,51.6
	c-0.1,29.4-0.1,58.9,0.1,88.4c0,4.6-1.1,6.4-6.1,6.3c-14.1-0.3-14.2,0-14.2-14c0-27.3,0-54.6,0-81.9c0-24.7-19.7-46.3-44.4-49.2
	c-28.8-3.4-50.8,16.1-54.6,37.6c-0.9,5-1.3,10.1-1.4,15.2c-0.1,28.6-0.2,57.2,0,85.9c0,5.1-1.6,6.8-6.5,6.3c-3.5-0.3-7-0.3-10.4,0
	c-3.3,0.2-4.6-1.3-4.3-4.4c0.1-0.8,0-1.7,0-2.5c0-68.3,0-136.7,0-205c0-6.6,0-6.6,6.5-6.6c3.2,0,6.3,0.2,9.5,0
	c4.1-0.3,5.1,1.4,5.1,5.2c-0.1,22.5-0.1,45-0.1,67.5L638.3,381.7z"/>
<path   d="M1642.5,439.9c2.6,43.1-38.8,85.7-83.7,84.6c-41.4-0.9-81.9-35-81.8-84.5c0.1-46.8,38.7-85,82.4-84.9
	C1610.3,355.4,1644.8,400.2,1642.5,439.9z M1560.4,504.5c4.6-0.5,9.2-0.8,13.8-1.6c2.8-0.5,5.5-1.3,8.1-2.4
	c28.4-11.2,45.4-42.9,39-74.1c-6.8-33.1-39-60.6-79.5-48.3c-20.7,6.3-44.7,29.5-44,63.5C1498.3,472.8,1525.2,505.9,1560.4,504.5
	L1560.4,504.5z"/>
<path   d="M802.7,411.8c0,14.6,0,29.1,0,43.7c0,25.8,22.8,47.8,48.6,48.9c25.8,1,48.2-20.2,51.4-41.6
	c0.4-2.4,0.6-4.9,0.6-7.4c0-30.1,0.1-60.2-0.1-90.3c0-4.6,1.4-6.3,6-5.8c3.6,0.2,7.3,0.2,11,0c2.9-0.1,4.2,1,4.2,4
	c-0.1,30.6,0.8,61.2-0.3,91.8c-1.3,38.2-27.1,62-54.1,67.5c-44.5,9.1-80.1-17-86.9-57.9c-0.8-5.1-1.2-10.2-1.1-15.3
	c-0.1-28.1,0-56.2-0.1-84.4c0-4.6,1.4-6.3,6-5.8c3.1,0.3,6.3,0.3,9.5,0c4.3-0.4,5.8,1.1,5.7,5.5
	C802.5,380.4,802.7,396.1,802.7,411.8z"/>
<path   d="M1016.8,411.7c0,14.7,0,29.4,0,44.2c0.1,25.5,22.9,47.5,48.4,48.5c25.5,1.1,48.2-19.6,51.7-42
	c0.3-2.3,0.5-4.6,0.5-6.9c0-29.9,0.1-59.9-0.1-89.8c0-4.9,1.1-6.7,6.3-6.6c14.8,0.3,14.8,0.1,14.8,14.9c0,26.1,0.3,52.3-0.1,78.4
	c-0.4,23.7-9.3,43.8-28.6,58.4c-35.2,26.5-98.8,15.6-111.7-41.7c-1.4-7.1-2.1-14.4-2-21.6c-0.2-27.5,0-54.9-0.2-82.4
	c0-4.4,1-6.5,5.8-6c3.5,0.3,7,0.3,10.4,0c3.7-0.3,4.9,1.2,4.9,4.9C1016.7,379.9,1016.8,395.8,1016.8,411.7z"/>
<path   d="M1175.2,473.4c9.1,0,9.1,0,11,8.8c2.6,12.1,17.9,23.9,29.8,22.8c17.8-1.7,27.6-11.8,28-28.1
	c0.4-13.3-6.1-22.1-17.8-27.1c-7.7-3.3-15.9-5.6-24-8.1c-23.9-7.6-31.1-22.5-31.9-41.5c-0.9-20.4,13.9-38.1,35.3-43.4
	s44.6,6.5,52.6,26.4c0.1,0.1,0.1,0.3,0.2,0.4c5,13.1,4.1,14.4-9.7,14.4c-1.5-0.1-3-0.1-4.5,0c-3.2,0.4-4.3-1.2-4.9-4.1
	c-2.6-11.3-8.9-16.6-21.5-18.5c-8.3-1.2-18.6,4-23,11.9c-6.1,11.3-4,25.1,8.2,31.8c6.5,3.5,13.7,5.7,20.6,8.4c5,1.9,10,3.4,14.9,5.5
	c29.4,12.8,35.3,50.8,16.8,72.2c-13.6,15.8-30.6,23.2-51.4,18.3c-20.4-4.8-33.5-18-38-38.4C1163.1,472.1,1161.6,473.4,1175.2,473.4z
	"/>
<path   d="M1746.9,391.7c0-27.6,0.1-55.3-0.1-82.9c0-5.1,1.6-6.8,6.5-6.3c3.1,0.3,6.3,0.3,9.5,0c3.9-0.3,5.2,1.1,5.2,5.1
	c-0.2,15.2,0.1,30.4-0.2,45.7c-0.1,4.9,1.5,6.2,6.2,6c8.6-0.4,17.3,0.1,25.9-0.2c4-0.1,5.1,1.4,5.1,5.2c0.1,13.8,0.2,13.8-13.8,13.8
	c-6.3,0-12.6,0.1-18.9,0c-3.2-0.1-4.4,1.2-4.4,4.4c0.1,31.3-0.3,62.5,0.2,93.8c0.3,17.7,13.3,30,31.4,30.7c4.5,0.2,5.5,1.8,5.5,5.9
	c-0.1,10.9,0,11.1-10.9,10.2c-15.4-1.2-29.4-5.6-38.8-18.9c-6.4-8.8-8.1-19.2-8.2-29.6C1746.7,447,1746.9,419.3,1746.9,391.7z"/>
<path   d="M1684.7,380.8c0.7-0.7,1.3-1.4,1.9-2.1c8.6-13,20.9-19.9,36-22.3c5.4-0.9,6.3-0.1,6.3,5.6c0,3.6-0.1,7.3,0,10.9
	c0.1,2.9-1,4-4,4.3c-21.9,2.1-38.7,20.4-38.8,42.4c-0.1,31.8-0.1,63.5,0.1,95.3c0,5.1-1.5,6.8-6.5,6.3c-4-0.4-8,0.2-12-0.2
	c-1.3-0.1-2.6-2.1-3.5-3.4c-0.5-0.7-0.1-1.9-0.1-2.9c0-49.6,0-99.3,0-148.9c0-6.5,0-6.5,6.6-6.5c12.4,0,12.4,0,12.4,12.2v9.2
	L1684.7,380.8z"/>
<path   d="M970.2,411.8c0,34.2,0,68.4,0,102.7c0,6.6,0,6.6-6.6,6.6c-13.6,0-13.6,0-13.6-13.5c0-66.1,0-132.3,0-198.4
	c0-6.6,0-6.6,6.5-6.6c13.6,0,13.6,0,13.6,13.5C970.2,348,970.2,379.9,970.2,411.8z"/>
<path   d="M1790.5,653.3c-6.2,2.7-11.9,6.3-18.1,7.8c-15.2,3.5-30.6-6.9-34.3-22.1c-4.6-18.9,7.6-36.3,27-38.4
	c13.4-1.5,29.6,9.8,31.3,23.6c1.5,12.1,1.8,24.4,0.8,36.5c-1.2,14.4-17.5,25.3-31.9,23.1c-8.5-1.4-15.9-4.6-21.1-11.7
	c-1.5-2.4-2.9-4.8-4.1-7.3c4-1.7,6-0.5,7.9,2.5c7.5,11.5,21.5,14.9,32.5,7.9C1788.8,669.9,1792.2,662.4,1790.5,653.3z M1767.4,655
	c13.2,0,23.3-10.2,23.3-23.7c0-13.2-10.1-23.8-22.7-23.9c-13.7,0-24,10-24.1,23.5C1743.9,644.7,1753.9,655,1767.4,655z"/>
<path   d="M1472,610.1c6.4-2.8,11.8-6.3,17.7-7.6c16.6-3.7,31.2,7.4,34.7,25.6c2.7,14.1-8.9,29.7-23.5,33.2
	c-16.3,4-35.9-10.1-35.9-29.6c0-15,0-30.1,0-45.1c0-2.6-0.2-5.1,3.6-5s3.3,2.9,3.3,5.3C1472,594.7,1472,602.5,1472,610.1z
	 M1494.8,608.4c-13.6-1.5-23,12.9-22.8,23c0.3,13.4,10,23.7,22.8,23.7c12.9,0,22.5-10.2,23.2-23.4
	C1518.5,621.2,1507.6,606.9,1494.8,608.4L1494.8,608.4z"/>
<path   d="M1590,642.3c-5.3,18.5-28.6,25.1-43.7,14.1c-11.3-8.2-15.7-19.9-12.3-33c3.2-12.1,13.7-21.8,26.6-22.7
	c17.4-1.3,31.8,11.9,32.9,29.4c0.3,3.9-1.9,4.2-5,4.2c-14.3-0.1-28.5,0-42.8,0h-5.3c-0.5,10.1,9,19.9,19.4,20.8
	c9.4,0.8,17.3-1.5,23.1-9.6C1584.4,643.7,1587.6,643.3,1590,642.3z M1586.1,627.8c-0.5-11.5-10.9-20.4-23.2-20.3
	c-11.9,0-22.1,9.1-22.5,20.3H1586.1z"/>
<path   d="M1683.2,640.8c0,5.6,0.2,11.2-0.1,16.9c-0.4,1.5-1.6,2.7-3.1,3.1c-1.2,0.1-3.5-1.7-3.5-2.6
	c0-12.2-0.3-24.5,0.9-36.6c1.2-11.7,12.5-20.1,24.8-20.2c12.2-0.1,23.6,8.4,24.8,20.1c1.3,12.1,0.9,24.4,1,36.6c0,1-2.6,3-3.4,2.7
	c-1.4-0.4-3.2-2.3-3.2-3.6c-0.3-10.1-0.1-20.2-0.2-30.2c0-8.9-7-17.5-14.9-18.5c-10.9-1.4-20.4,3.9-22.2,13.6
	c-1.2,6-0.2,12.5-0.2,18.8L1683.2,640.8z"/>
<path   d="M1601.5,614.5c0-8.1-0.3-16.2,0.2-24.3c0.2-3-2.8-8.4,3.2-8.5c6.6-0.1,2.8,5.6,3.5,8.7c0.6,2.5,0.3,5.3,0.1,7.9
	c-0.2,3,1,4.3,4,4c2.3-0.3,4.7-0.2,7,0.1c1.2,0.2,2,1.9,3,3c-1,1-2,2.6-3.2,2.8c-3.3,0.7-8.5-0.3-9.7,1.4c-1.8,2.7-1,7.2-1,11
	c-0.1,7.6-0.1,15.2,0,22.8c0.1,7.1,3.2,10.7,10.2,12.6c1.4,0.4,2.5,2.3,3.7,3.6c-1.5,0.6-3.2,1.8-4.6,1.6
	c-11.9-1.9-16.2-7.1-16.3-19C1601.4,633,1601.5,623.8,1601.5,614.5z"/>
<path   d="M1630.4,615.3c0-9.7,0-19.5,0-29.2c0-2.5,0.1-4.6,3.6-4.6c3.4,0,3.5,2.2,3.5,4.7c0,3.8,0.2,7.6-0.1,11.4
	c-0.2,3.6,0.9,5.3,4.7,4.9c2.1-0.3,4.3-0.3,6.4,0.1c1.3,0.6,2.3,1.7,2.6,3.1c0.1,0.7-1.7,1.8-2.6,2.7c-0.2,0.2-0.6,0-1,0
	c-10.1,0.6-10.1,0.6-10.1,11c0,7.9,0,15.9,0,23.8c0,7.5,3,10.9,10.4,12.9c1.4,0.4,2.3,2.4,3.5,3.7c-1.4,0.5-3,1.7-4.3,1.5
	c-12.1-1.9-16.5-7.1-16.6-19.3C1630.3,633.2,1630.4,624.3,1630.4,615.3z"/>
<path   d="M1659.2,631.7c0-8.2,0-16.5,0-24.7c0-2.5,0.1-4.6,3.5-4.6s3.5,2.2,3.5,4.6c0,16.5,0,33,0,49.5
	c0,2.5-0.1,4.6-3.6,4.6c-3.4,0-3.5-2.2-3.5-4.6C1659.3,648.2,1659.2,639.9,1659.2,631.7z"/>
<path   d="M1659.2,586.4c-0.1-1.3,0.1-2.6,0.7-3.7c0.5-0.8,2.6-1.2,3.9-1c1.1,0.4,2,1.3,2.3,2.5c0.4,2.1,0.1,4.2,0.1,6.4
	c0.1,2.6-0.8,4-3.6,4c-3,0-3.5-1.8-3.4-4.2C1659.3,589.6,1659.2,588.8,1659.2,586.4z"/>
<path   d="M476.2,67.6c47.5,48,74.1,112.8,74,180.2c0,141.8-115,256.6-257,256.6s-257-115-257-256.6
	c-0.1-64.9,24.5-127.5,68.9-174.9C41.4,127.6,4.9,207.4,5,291.3c0,159.3,129.3,288.5,288.9,288.5s288.9-129.2,288.9-288.5
	C582.8,204.6,543.7,122.4,476.2,67.6z"/>
<path   d="M330.9,459.8c-118.8,0-215.2-96.2-215.2-214.9S212.1,29.9,330.9,29.9c55.3-0.1,108.5,21.2,148.4,59.4
	C433,35.2,365.2,4,293.8,4c-134.8,0-244,109.1-244,243.7s109.3,243.7,244,243.7c87.8,0,164.8-46.3,207.8-115.9
	C461,428.7,397.9,459.8,330.9,459.8z"/>
<path   d="M330.9,45.8c-111.2,0-201.2,89.9-201.2,200.9c0,13.4,1.3,26.8,4,40c-0.7-6.2-1-12.5-1-18.8
	c0-97.3,78.9-176.1,176.3-176.1S485.3,170.7,485.3,268S406.4,444.1,309,444.1c-8.2,0-16.3-0.6-24.4-1.7c15.2,3.6,30.7,5.4,46.3,5.4
	c111.2,0,201.2-89.9,201.2-200.9S442,45.8,330.9,45.8z"/>
<path   d="M404.4,155.4c-6.4-0.4-37.2,0-37.2,0s-9.2,1.3-10.5,7.3v1.3l0.6,89.9h-93.6v-89.9c0,0-4.5-8.2-10.9-8.6
	c-6.4-0.4-37.2,0-37.2,0s-9.2,1.3-10.5,7.3v1.3l1.5,231.8c0,0,0.4,10.5,25.5,11.2s31.5-7.8,31.5-10.8v-98.5h93.9l0.6,98.1
	c0,0,0.4,10.5,25.5,11.2s31.5-7.8,31.5-10.8V164.1C415.3,164.1,410.8,155.8,404.4,155.4z"/>
</svg>
